<svg width="36" height="36" viewBox="0 0 36 36" fill="none" xmlns="http://www.w3.org/2000/svg">
<path fill-rule="evenodd" clip-rule="evenodd" d="M18 2C14.8355 2 11.7421 2.93838 9.11088 4.69649C6.4797 6.45459 4.42894 8.95344 3.21793 11.8771C2.00693 14.8007 1.69008 18.0177 2.30744 21.1214C2.92481 24.2251 4.44866 27.0761 6.6863 29.3137C8.92394 31.5513 11.7749 33.0752 14.8786 33.6926C17.9823 34.3099 21.1993 33.9931 24.1229 32.7821C27.0466 31.5711 29.5454 29.5203 31.3035 26.8891C33.0616 24.2579 34 21.1645 34 18C34 15.8988 33.5861 13.8183 32.7821 11.8771C31.978 9.93585 30.7994 8.17203 29.3137 6.68629C27.828 5.20055 26.0641 4.022 24.1229 3.21793C22.1817 2.41385 20.1012 2 18 2V2ZM20.6667 26.5333H15.3333V15.8667H20.6667V26.5333ZM18 13.7333C17.3671 13.7333 16.7484 13.5457 16.2222 13.194C15.6959 12.8424 15.2858 12.3426 15.0436 11.7579C14.8014 11.1732 14.738 10.5298 14.8615 9.90904C14.985 9.2883 15.2897 8.71812 15.7373 8.27059C16.1848 7.82306 16.755 7.51829 17.3757 7.39482C17.9965 7.27135 18.6399 7.33472 19.2246 7.57692C19.8093 7.81912 20.3091 8.22927 20.6607 8.75551C21.0123 9.28174 21.2 9.90043 21.2 10.5333C21.2 11.382 20.8629 12.196 20.2627 12.7961C19.6626 13.3962 18.8487 13.7333 18 13.7333V13.7333Z" fill="#A7BACC"/>
</svg>
