<svg width="4796" height="1024" viewBox="0 0 4796 1024" fill="none" xmlns="http://www.w3.org/2000/svg">
<path fill-rule="evenodd" clip-rule="evenodd" d="M163.139 135.765C257.704 48.5233 381.655 0.0922093 510.316 0.112391L510.091 3.3891e-07C605.359 -0.00346535 698.739 26.5733 779.727 76.741C860.716 126.909 926.102 198.678 968.53 283.976C1010.96 369.274 1028.75 464.718 1019.89 559.574C1011.04 654.43 975.901 744.935 918.422 820.909C860.943 896.884 783.407 955.315 694.534 989.631C605.662 1023.95 508.977 1032.79 415.355 1015.16C321.733 997.524 234.886 954.122 164.583 889.83C94.2806 825.538 43.3097 742.906 17.4035 651.228L213.67 732.407C220.718 767.696 240.64 799.102 269.562 820.516C298.483 841.93 334.336 851.821 370.146 848.263C405.956 844.706 439.163 827.956 463.306 801.271C487.45 774.586 500.805 739.874 500.772 703.888V697.039L674.807 572.856H679.186C717.387 572.878 754.736 561.571 786.51 540.364C818.284 519.156 843.054 489.003 857.688 453.716C872.322 418.429 876.163 379.595 868.724 342.126C861.285 304.656 842.901 270.235 815.896 243.215C788.892 216.195 754.481 197.79 717.016 190.33C679.551 182.869 640.714 186.687 605.419 201.3C570.124 215.914 539.956 240.667 518.73 272.428C497.505 304.19 486.175 341.533 486.175 379.733V382.204L364.126 559.158H356.042C326.92 559.125 298.467 567.891 274.414 584.309L0 470.905C10.329 342.659 68.5735 223.006 163.139 135.765ZM258.021 751.158L320.898 777.095C340.507 785.269 362.561 785.319 382.206 777.233C401.852 769.147 417.482 753.588 425.656 733.979C433.83 714.37 433.88 692.316 425.794 672.67C417.708 653.024 402.149 637.395 382.54 629.221L317.53 602.386C337.283 594.892 358.791 593.311 379.427 597.836C400.064 602.361 418.937 612.797 433.741 627.869C448.546 642.942 458.642 661.998 462.798 682.712C466.953 703.426 464.988 724.902 457.141 744.518C449.295 764.134 435.907 781.041 418.612 793.176C401.317 805.31 380.864 812.146 359.749 812.851C338.634 813.555 317.77 808.096 299.705 797.141C281.641 786.185 267.156 770.208 258.021 751.158ZM807.86 380.183C807.86 354.734 800.313 329.856 786.175 308.695C772.036 287.535 751.94 271.043 728.428 261.304C704.916 251.565 679.044 249.017 654.083 253.982C629.123 258.946 606.196 271.201 588.2 289.197C570.205 307.192 557.95 330.119 552.985 355.08C548.02 380.04 550.568 405.912 560.307 429.424C570.046 452.936 586.539 473.032 607.699 487.171C628.859 501.31 653.737 508.856 679.186 508.856C713.303 508.827 746.015 495.26 770.139 471.136C794.264 447.011 807.83 414.3 807.86 380.183ZM582.737 380.183C582.737 361.063 588.407 342.372 599.03 326.474C609.652 310.576 624.751 298.185 642.415 290.868C660.08 283.551 679.518 281.636 698.271 285.367C717.024 289.097 734.249 298.304 747.769 311.824C761.289 325.344 770.497 342.57 774.227 361.323C777.957 380.075 776.043 399.513 768.726 417.178C761.409 434.843 749.018 449.941 733.12 460.564C717.222 471.187 698.531 476.856 679.411 476.856C666.701 476.842 654.118 474.324 642.381 469.446C630.644 464.569 619.983 457.427 611.006 448.429C602.029 439.431 594.912 428.753 590.062 417.005C585.24 405.326 582.752 392.817 582.737 380.183ZM3615.21 699.172V664.141H3432.76V324.941H3393.23V699.172H3615.21ZM3716.6 699.172V324.941H3756.13V699.172H3716.6ZM3946.78 394.443L4170.55 699.172H4204.46V324.941H4164.83V629.559L3942.18 324.941H3907.37V699.172H3946.78V394.443ZM4411.06 529.516L4382.2 560.057V699.172H4342.34V324.941H4382.2V512.113L4554.1 324.941H4604.07L4438.68 500.323L4617.09 699.172H4564.43L4411.06 529.516ZM1526.45 413.755L1560.14 355.256C1523.11 330.132 1479.12 317.287 1434.38 318.54C1354.67 318.54 1298.52 358.512 1298.52 428.126C1298.52 489.769 1340.52 516.379 1401.15 536.59C1405.11 537.903 1408.97 539.166 1412.7 540.39C1459.11 555.599 1487.38 564.867 1487.38 591.158C1487.38 615.972 1465.49 632.814 1420.01 632.814C1383.97 632.155 1348.59 623.04 1316.71 606.203L1292.46 670.99C1332.61 693.779 1378 705.698 1424.17 705.572C1510.17 705.572 1570.13 662.681 1570.13 586.442C1570.13 530.751 1535.1 505.376 1474.24 483.93C1465.54 480.804 1457.27 477.986 1449.52 475.341L1449.51 475.339C1406.84 460.795 1379.59 451.506 1379.59 425.095C1379.59 399.383 1401.15 385.011 1435.73 385.011C1468.13 385.543 1499.66 395.534 1526.45 413.755ZM1825.91 392.309V699.285H1747.31V392.309H1633.8V324.941H1939.31V392.309H1825.91ZM2098.86 476.632V392.309H2272.79V324.941H2020.49V699.172H2272.79V631.804H2098.86V544.001H2248.76V476.632H2098.86ZM2447.72 626.527L2422.9 699.172H2340.83L2481.07 324.941H2559.66L2703.94 699.172H2618.95L2593.68 626.527H2447.72ZM2520.14 414.766L2469.05 564.66H2572.24L2520.14 414.766ZM2998.9 688.281L3101.3 469.559V699.172H3175.75V324.941H3100.29L2979.14 595.088L2853.39 324.941H2778.61V699.172H2853.61V471.58L2954.67 688.281H2998.9ZM4685.92 333.362V396.913H4676.38V333.362H4652.8V324.941H4709.5V333.362H4685.92ZM4786.19 396.913H4795.51L4795.17 324.941H4785.52L4759.47 383.776L4732.3 324.941H4722.75V396.913H4732.07V343.804L4756.44 396.015H4761.71L4786.19 343.804V396.913Z" fill="white"/>
</svg>
